<?xml version="1.0" standalone="no"?>
<!DOCTYPE svg PUBLIC "-//W3C//DTD SVG 20010904//EN"
 "http://www.w3.org/TR/2001/REC-SVG-20010904/DTD/svg10.dtd">
<svg version="1.0" xmlns="http://www.w3.org/2000/svg"
 width="24.000000pt" height="24.000000pt" viewBox="0 0 24.000000 24.000000"
 preserveAspectRatio="xMidYMid meet">

<g transform="translate(0.000000,24.000000) scale(0.100000,-0.100000)"
fill="#000000" stroke="none">
<path d="M85 226 c-20 -14 -24 -71 -6 -89 16 -16 13 -37 -6 -44 -29 -10 -53
-35 -53 -54 0 -34 103 -51 169 -28 47 17 36 62 -21 82 -20 7 -23 28 -7 44 5 5
11 25 11 43 1 34 -21 60 -52 60 -9 0 -24 -6 -35 -14z"/>
</g>
</svg>
